name C:\Users\u0101727\Documents\MyRepositories\upper-imu-dc\Results\main_tracking\Case_40\FLX01_angularVelocities_bodyFrame.mot
datacolumns 4
datarows 141
range 5.01000000 6.41000000
endheader 
time	radius_imu_x	radius_imu_y	radius_imu_z	
          5.01000000	          1.28821868	         -0.20676227	          0.67737182	
          5.02000000	          1.19964091	         -0.07714927	          0.76900818	
          5.03000000	          1.11411555	          0.01460183	          0.87000635	
          5.04000000	          1.02543954	          0.04857830	          0.98289550	
          5.05000000	          0.97691730	          0.04527975	          1.10505195	
          5.06000000	          0.92115648	          0.00276142	          1.23699726	
          5.07000000	          0.86787650	         -0.06781611	          1.37558029	
          5.08000000	          0.81778486	         -0.14324808	          1.52051876	
          5.09000000	          0.77133259	         -0.19804195	          1.67077313	
          5.10000000	          0.72905116	         -0.20959842	          1.82489554	
          5.11000000	          0.69151432	         -0.16676680	          1.98122009	
          5.12000000	          0.65940099	         -0.07135927	          2.13801106	
          5.13000000	          0.63341838	          0.06600476	          2.29352904	
          5.14000000	          0.61405891	          0.23302625	          2.44603539	
          5.15000000	          0.60128783	          0.42165410	          2.59377937	
          5.16000000	          0.59433400	          0.63005869	          2.73499519	
          5.17000000	          0.59168562	          0.86070554	          2.86788944	
          5.18000000	          0.59126025	          1.11650506	          2.99058508	
          5.19000000	          0.59070710	          1.39661634	          3.10104657	
          5.20000000	          0.58782842	          1.69302352	          3.19704016	
          5.21000000	          0.58102834	          1.98952966	          3.27612892	
          5.22000000	          0.56963110	          2.26412370	          3.33566846	
          5.23000000	          0.55397651	          2.49366965	          3.37280131	
          5.24000000	          0.53529418	          2.65897627	          3.38447682	
          5.25000000	          0.51540638	          2.74880536	          3.36752756	
          5.26000000	          0.49636344	          2.76182075	          3.31883697	
          5.27000000	          0.48017352	          2.70578952	          3.23562158	
          5.28000000	          0.46875347	          2.59427365	          3.11580365	
          5.29000000	          0.46408733	          2.44225441	          2.95840290	
          5.30000000	          0.46845731	          2.26255861	          2.76387336	
          5.31000000	          0.48462884	          2.06398075	          2.53434597	
          5.32000000	          0.51597616	          1.85122378	          2.27375134	
          5.33000000	          0.56666765	          1.62441884	          1.98775790	
          5.34000000	          0.64367552	          1.38467609	          1.68425673	
          5.35000000	          0.75343941	          1.11096828	          1.36989363	
          5.36000000	          0.86302596	          0.82695844	          1.04890069	
          5.37000000	          1.00422953	          0.51607455	          0.72818295	
          5.38000000	          1.13062218	          0.13067929	          0.42860202	
          5.39000000	          1.25082108	         -0.22910782	          0.14190215	
          5.40000000	          1.36733654	         -0.53124427	         -0.11524202	
          5.41000000	          1.47322207	         -0.79400726	         -0.33127118	
          5.42000000	          1.56119750	         -1.01070244	         -0.50038719	
          5.43000000	          1.62501678	         -1.18609779	         -0.62336343	
          5.44000000	          1.66140625	         -1.32489424	         -0.70470007	
          5.45000000	          1.67007768	         -1.43156853	         -0.75104086	
          5.46000000	          1.65319611	         -1.51041445	         -0.76980803	
          5.47000000	          1.61457185	         -1.56645000	         -0.76825554	
          5.48000000	          1.55877570	         -1.60710774	         -0.75292704	
          5.49000000	          1.49081686	         -1.64279075	         -0.72923816	
          5.50000000	          1.41654732	         -1.68595125	         -0.70106719	
          5.51000000	          1.34456985	         -1.74498118	         -0.67036045	
          5.52000000	          1.28762543	         -1.81901379	         -0.63695012	
          5.53000000	          1.27392169	         -1.84961841	         -0.60072543	
          5.54000000	          1.28426854	         -1.86194855	         -0.56862343	
          5.55000000	          1.31992429	         -1.78142683	         -0.54244682	
          5.56000000	          1.35804482	         -1.69175696	         -0.53881710	
          5.57000000	          1.37591186	         -1.65869033	         -0.55364434	
          5.58000000	          1.37615069	         -1.64169375	         -0.57898561	
          5.59000000	          1.36663533	         -1.58576479	         -0.61174355	
          5.60000000	          1.34941086	         -1.46764642	         -0.64894701	
          5.61000000	          1.32476391	         -1.28030590	         -0.68758765	
          5.62000000	          1.29286646	         -1.03278088	         -0.72431333	
          5.63000000	          1.25538176	         -0.74710713	         -0.75542540	
          5.64000000	          1.21722184	         -0.45198720	         -0.77747984	
          5.65000000	          1.18749218	         -0.16815778	         -0.78858360	
          5.66000000	          1.18582108	          0.13751240	         -0.79305414	
          5.67000000	          1.21693862	          0.56951468	         -0.79942443	
          5.68000000	          1.26066635	          0.94282632	         -0.80116495	
          5.69000000	          1.29462408	          0.99527328	         -0.78462951	
          5.70000000	          1.32275669	          0.81542953	         -0.75375844	
          5.71000000	          1.35019330	          0.51930355	         -0.71828360	
          5.72000000	          1.37809021	          0.18044956	         -0.68384357	
          5.73000000	          1.40515457	         -0.14208517	         -0.65369992	
          5.74000000	          1.42918017	         -0.40551840	         -0.62922897	
          5.75000000	          1.44801205	         -0.58331451	         -0.61019727	
          5.76000000	          1.45990769	         -0.66676739	         -0.59497272	
          5.77000000	          1.46356053	         -0.66613061	         -0.58081009	
          5.78000000	          1.45818014	         -0.61060302	         -0.56427413	
          5.79000000	          1.44390470	         -0.54514673	         -0.54190658	
          5.80000000	          1.42357676	         -0.51790740	         -0.51146330	
          5.81000000	          1.40329238	         -0.55003537	         -0.47362823	
          5.82000000	          1.40304833	         -0.54086006	         -0.43862383	
          5.83000000	          1.42137466	         -0.28997140	         -0.41510136	
          5.84000000	          1.44329089	         -0.02588529	         -0.39434301	
          5.85000000	          1.43860362	         -0.06718891	         -0.35971325	
          5.86000000	          1.40748346	         -0.26419758	         -0.32317310	
          5.87000000	          1.34718338	         -0.59574254	         -0.28791490	
          5.88000000	          1.26162767	         -1.05144649	         -0.25499900	
          5.89000000	          1.16125313	         -1.61101014	         -0.22358453	
          5.90000000	          1.07559733	         -2.06565900	         -0.19915752	
          5.91000000	          0.98736978	         -2.32743324	         -0.19144489	
          5.92000000	          0.92653832	         -2.44347427	         -0.17339705	
          5.93000000	          0.87557750	         -2.36092558	         -0.16533364	
          5.94000000	          0.81682882	         -2.13553728	         -0.15659896	
          5.95000000	          0.75288293	         -2.15713508	         -0.13302753	
          5.96000000	          0.69256370	         -2.20889074	         -0.10523678	
          5.97000000	          0.63242521	         -1.86364072	         -0.09223007	
          5.98000000	          0.55966792	         -1.47573934	         -0.07498727	
          5.99000000	          0.47562398	         -1.34789104	         -0.04297590	
          6.00000000	          0.39672474	         -1.11019284	         -0.01524702	
          6.01000000	          0.31925381	         -0.70860608	          0.00599601	
          6.02000000	          0.23423675	         -0.37930629	          0.03332168	
          6.03000000	          0.15054489	         -0.02440143	          0.06064262	
          6.04000000	          0.06518466	          0.35161355	          0.08806666	
          6.05000000	         -0.02185109	          0.68246368	          0.11853623	
          6.06000000	         -0.10666747	          1.01859393	          0.14888073	
          6.07000000	         -0.18756246	          1.29457312	          0.18185270	
          6.08000000	         -0.26223220	          1.56692330	          0.21350161	
          6.09000000	         -0.33060401	          1.71150337	          0.24841919	
          6.10000000	         -0.38255156	          1.85100829	          0.28018755	
          6.11000000	         -0.41710357	          1.97419773	          0.31029793	
          6.12000000	         -0.43349970	          2.11508279	          0.33484155	
          6.13000000	         -0.43619521	          2.25175651	          0.35500847	
          6.14000000	         -0.43236637	          2.28057436	          0.37688820	
          6.15000000	         -0.42325637	          2.29972090	          0.39587845	
          6.16000000	         -0.41107014	          2.32680102	          0.41159351	
          6.17000000	         -0.39760849	          2.37962666	          0.42327779	
          6.18000000	         -0.38418434	          2.45983092	          0.43071693	
          6.19000000	         -0.37117681	          2.55357252	          0.43418308	
          6.20000000	         -0.35813723	          2.63503279	          0.43436052	
          6.21000000	         -0.34418311	          2.67630977	          0.43201130	
          6.22000000	         -0.32847358	          2.65841191	          0.42761283	
          6.23000000	         -0.31054950	          2.57831936	          0.42117038	
          6.24000000	         -0.29049118	          2.44924717	          0.41229752	
          6.25000000	         -0.26891688	          2.29484490	          0.40048450	
          6.26000000	         -0.24682447	          2.14044532	          0.38539568	
          6.27000000	         -0.22529523	          2.00470566	          0.36707990	
          6.28000000	         -0.20514839	          1.89391982	          0.34605575	
          6.29000000	         -0.18670510	          1.80053043	          0.32326473	
          6.30000000	         -0.16981959	          1.70689426	          0.29988665	
          6.31000000	         -0.15418551	          1.59346633	          0.27705804	
          6.32000000	         -0.13972045	          1.44775198	          0.25561598	
          6.33000000	         -0.12678278	          1.26968263	          0.23599331	
          6.34000000	         -0.11612149	          1.07160024	          0.21828542	
          6.35000000	         -0.10863398	          0.87422235	          0.20240112	
          6.36000000	         -0.10506407	          0.70110972	          0.18820104	
          6.37000000	         -0.10574334	          0.57351081	          0.17558539	
          6.38000000	         -0.11044651	          0.50661320	          0.16453950	
          6.39000000	         -0.11838456	          0.50749640	          0.15516235	
          6.40000000	         -0.12831754	          0.57461404	          0.14769519	
          6.41000000	         -0.13879738	          0.69889427	          0.14253892	
